<svg id="Layer_1" data-name="Layer 1" xmlns="http://www.w3.org/2000/svg" viewBox="0 0 63.06 40.14"><defs><style>.cls-1{fill:#807766;}</style></defs><title>behance</title><g id="Layer_1-2" data-name="Layer_1"><g id="_644646448" data-name=" 644646448"><path class="cls-1" d="M53.09,80a10.62,10.62,0,0,0,4.42-2A10.81,10.81,0,0,0,60.29,75,11.46,11.46,0,0,0,62,68.7,10.45,10.45,0,0,0,60.51,63,8.83,8.83,0,0,0,56,59.51a9.25,9.25,0,0,0,3-2.23,8.71,8.71,0,0,0,1.81-5.77,10,10,0,0,0-1.79-6c-2-2.71-5.38-4.11-10.15-4.17H29.91V80.53H47.56A27.46,27.46,0,0,0,53.09,80ZM37.72,48.17h8.52a14.67,14.67,0,0,1,4.63.61A3.51,3.51,0,0,1,53,52.39a3.68,3.68,0,0,1-1.6,3.44,7.86,7.86,0,0,1-4.13,1H37.72Zm0,25.56h0V63.28h9.64a9.79,9.79,0,0,1,3.91.67,4.19,4.19,0,0,1,2.49,4.19c0,2.41-.85,4-2.57,4.9a9.38,9.38,0,0,1-4,.69Z" transform="translate(-29.91 -41.37)"/><path class="cls-1" d="M68.66,78a15.83,15.83,0,0,0,10.2,3.56c4.67,0,8.31-1.41,10.89-4.22a9.48,9.48,0,0,0,2.82-5.24H84.83a6.18,6.18,0,0,1-1.55,2,6.42,6.42,0,0,1-4.21,1.34,7.65,7.65,0,0,1-4.17-1.1c-1.9-1.17-2.92-3.2-3-6.11H93a38.58,38.58,0,0,0-.25-5.75,14.3,14.3,0,0,0-2.3-6,11.88,11.88,0,0,0-5-4.29,16.57,16.57,0,0,0-6.82-1.36,13.93,13.93,0,0,0-10.34,4q-4,4-4,11.53Q64.24,74.38,68.66,78ZM74.07,58.7h0A6,6,0,0,1,78.59,57a6.59,6.59,0,0,1,4.49,1.57,6.25,6.25,0,0,1,2,4.57h-13A8,8,0,0,1,74.07,58.7Z" transform="translate(-29.91 -41.37)"/><polygon class="cls-1" points="56.69 2.25 39.67 2.25 39.67 6.2 56.69 6.2 56.69 2.25"/></g></g></svg>