<?xml version="1.0" encoding="utf-8"?>
<!-- Generator: Adobe Illustrator 22.0.1, SVG Export Plug-In . SVG Version: 6.00 Build 0)  -->
<svg version="1.1" id="Layer_1" xmlns="http://www.w3.org/2000/svg" xmlns:xlink="http://www.w3.org/1999/xlink" x="0px" y="0px"
	 viewBox="0 0 63.1 40.1" style="enable-background:new 0 0 63.1 40.1;" xml:space="preserve">
<style type="text/css">
	.st0{fill:#D8CEC2;}
</style>
<title>behance</title>
<g id="Layer_1-2">
	<g id="_644646448">
		<path class="st0" d="M23.2,38.6c1.6-0.3,3.1-1,4.4-2c1.1-0.8,2.1-1.8,2.8-3c1.2-1.9,1.8-4.1,1.7-6.3c0.1-2-0.5-4-1.5-5.7
			c-1.1-1.6-2.7-2.9-4.5-3.5c1.1-0.5,2.2-1.3,3-2.2c1.3-1.6,1.9-3.7,1.8-5.8c0.1-2.1-0.6-4.2-1.8-6C27.1,1.4,23.7,0,19,0H0v39.2
			h17.7C19.5,39.2,21.4,39,23.2,38.6z M7.8,6.8h8.5c1.6,0,3.1,0.2,4.6,0.6c1.4,0.6,2.3,2.1,2.1,3.6c0.1,1.4-0.5,2.7-1.6,3.4
			c-1.3,0.7-2.7,1.1-4.1,1H7.8V6.8z M7.8,32.4L7.8,32.4V21.9h9.6c1.3,0,2.7,0.2,3.9,0.7c1.6,0.7,2.6,2.4,2.5,4.2
			c0,2.4-0.8,4-2.6,4.9c-1.3,0.5-2.6,0.8-4,0.7L7.8,32.4z"/>
		<path class="st0" d="M38.8,36.6c2.9,2.3,6.5,3.6,10.2,3.6c4.7,0,8.3-1.4,10.9-4.2c1.5-1.4,2.5-3.2,2.8-5.2h-7.7
			c-0.4,0.8-0.9,1.4-1.6,2c-1.2,0.9-2.7,1.4-4.2,1.3c-1.5,0-2.9-0.3-4.2-1.1c-1.9-1.2-2.9-3.2-3-6.1h21.1c0.1-1.9,0-3.8-0.3-5.8
			c-0.3-2.1-1.1-4.2-2.3-6c-1.2-1.9-3-3.4-5-4.3c-2.2-0.9-4.5-1.4-6.8-1.4c-3.9-0.2-7.6,1.3-10.3,4c-2.7,2.7-4,6.5-4,11.5
			C34.3,30.3,35.8,34.2,38.8,36.6z M44.2,17.3L44.2,17.3c1.2-1.2,2.8-1.8,4.5-1.7c1.6-0.1,3.2,0.5,4.5,1.6c1.3,1.2,2,2.8,2,4.6h-13
			C42.4,20.1,43.1,18.6,44.2,17.3z"/>
		<polygon class="st0" points="56.7,2.3 39.7,2.3 39.7,6.2 56.7,6.2 		"/>
	</g>
</g>
</svg>
