<svg id="Capa_1" data-name="Capa 1" xmlns="http://www.w3.org/2000/svg" viewBox="0 0 36.31 46"><defs><style>.cls-1{fill:#d0d0d0;stroke:#d8cec2;stroke-miterlimit:10;stroke-width:2px;}</style></defs><title>download</title><path class="cls-1" d="M9,29.48a1,1,0,0,0-1.42,0,1,1,0,0,0,0,1.41l10,10a1,1,0,0,0,.71.3h0a1,1,0,0,0,.8-.43L29,30.85a1,1,0,0,0,0-1.41,1,1,0,0,0-1.42,0L19.29,37.8V2.17a1,1,0,0,0-2,0V37.79Z" transform="translate(-0.11 -0.17)"/><path class="cls-1" d="M34.43,43.17H2.11a1,1,0,1,0,0,2H34.43a1,1,0,0,0,0-2Z" transform="translate(-0.11 -0.17)"/></svg>