<?xml version="1.0" encoding="utf-8"?>
<!-- Generator: Adobe Illustrator 22.0.1, SVG Export Plug-In . SVG Version: 6.00 Build 0)  -->
<svg version="1.1" id="Layer_1" xmlns="http://www.w3.org/2000/svg" xmlns:xlink="http://www.w3.org/1999/xlink" x="0px" y="0px"
	 viewBox="0 0 1177.6 768" style="enable-background:new 0 0 1177.6 768;" xml:space="preserve">
<style type="text/css">
	.st0{fill:#D8CEC2;}
</style>
<title>expand</title>
<path class="st0" d="M102.4,281.6C45.8,281.7,0,327.5,0.1,384.1S46,486.5,102.6,486.4c56.5-0.1,102.3-45.9,102.3-102.4
	C204.8,327.4,159,281.6,102.4,281.6z M102.4,435.2c-28.3,0-51.2-23-51.2-51.3c0-28.3,23-51.2,51.3-51.2c28.3,0,51.2,23,51.2,51.3
	C153.7,412.3,130.7,435.2,102.4,435.2z"/>
<path class="st0" d="M409.6,281.6c-56.6,0-102.4,45.8-102.4,102.4S353,486.4,409.6,486.4S512,440.6,512,384l0,0
	C512,327.5,466.1,281.6,409.6,281.6z M409.6,435.2c-28.3,0-51.2-23-51.2-51.3s23-51.2,51.3-51.2c28.3,0,51.2,23,51.2,51.3
	C460.8,412.3,437.9,435.2,409.6,435.2z"/>
<path class="st0" d="M819.3,384c0-56.6-45.8-102.5-102.4-102.5c-56.6,0-102.5,45.8-102.5,102.4s45.8,102.5,102.4,102.5
	c0,0,0.1,0,0.1,0C773.4,486.3,819.2,440.5,819.3,384z M716.9,435.2c-28.3,0.1-51.3-22.8-51.4-51.1s22.8-51.3,51.1-51.4
	c28.3-0.1,51.3,22.8,51.4,51.1c0,0.1,0,0.1,0,0.2C767.9,412.2,745.1,435.1,716.9,435.2z"/>
<path class="st0" d="M1170.1,365.9L811.7,7.5c-10-10-26.3-10-36.3,0s-10,26.3,0,36.3L1115.9,384L775.5,724.3
	c-10.1,9.9-10.4,26.1-0.5,36.2c9.9,10.1,26.1,10.4,36.2,0.5c0.2-0.2,0.4-0.3,0.5-0.5l358.4-358.4
	C1180.1,392.1,1180.1,375.9,1170.1,365.9C1170.1,365.9,1170.1,365.9,1170.1,365.9z"/>
</svg>
