<?xml version="1.0" encoding="utf-8"?>
<!-- Generator: Adobe Illustrator 22.0.1, SVG Export Plug-In . SVG Version: 6.00 Build 0)  -->
<svg version="1.1" id="Layer_1" xmlns="http://www.w3.org/2000/svg" xmlns:xlink="http://www.w3.org/1999/xlink" x="0px" y="0px"
	 viewBox="0 0 2000 1334" style="enable-background:new 0 0 2000 1334;" xml:space="preserve">
<style type="text/css">
	.st0{fill:#FFFFFF;}
	.st1{clip-path:url(#SVGID_2_);fill:#FFFFFF;}
	.st2{clip-path:url(#SVGID_2_);}
</style>
<g>
	<path class="st0" d="M990.4,664.8c-1.8,0-3.2,1.4-3.2,3.2c0,1.8,1.4,3.2,3.2,3.2c1.8,0,3.2-1.4,3.2-3.2
		C993.6,666.2,992.2,664.8,990.4,664.8L990.4,664.8z M990.4,669.6c-0.9,0-1.6-0.7-1.6-1.6c0-0.9,0.7-1.6,1.6-1.6
		c0.9,0,1.6,0.7,1.6,1.6C992,668.9,991.3,669.6,990.4,669.6L990.4,669.6z M990.4,669.6"/>
	<path class="st0" d="M1000,664.8c-1.8,0-3.2,1.4-3.2,3.2c0,1.8,1.4,3.2,3.2,3.2s3.2-1.4,3.2-3.2
		C1003.2,666.2,1001.8,664.8,1000,664.8L1000,664.8z M1000,669.6c-0.9,0-1.6-0.7-1.6-1.6c0-0.9,0.7-1.6,1.6-1.6
		c0.9,0,1.6,0.7,1.6,1.6C1001.6,668.9,1000.9,669.6,1000,669.6L1000,669.6z M1000,669.6"/>
	<g>
		<defs>
			<rect id="SVGID_1_" x="976" y="655" width="48" height="25"/>
		</defs>
		<clipPath id="SVGID_2_">
			<use xlink:href="#SVGID_1_"  style="overflow:visible;"/>
		</clipPath>
		<path class="st1" d="M1012.8,668c0-1.8-1.4-3.2-3.2-3.2c-1.8,0-3.2,1.4-3.2,3.2c0,1.8,1.4,3.2,3.2,3.2
			C1011.4,671.2,1012.8,669.8,1012.8,668L1012.8,668z M1009.6,669.6c-0.9,0-1.6-0.7-1.6-1.6c0-0.9,0.7-1.6,1.6-1.6
			c0.9,0,1.6,0.7,1.6,1.6C1011.2,668.9,1010.5,669.6,1009.6,669.6L1009.6,669.6z M1009.6,669.6"/>
		<path class="st2" d="M977.9,668"/>
		<path class="st1" d="M1023.8,667.4l-11.2-11.2c-0.3-0.3-0.8-0.3-1.1,0c-0.3,0.3-0.3,0.8,0,1.1l10.6,10.6l-10.6,10.6
			c-0.3,0.3-0.3,0.8,0,1.1c0.2,0.2,0.4,0.2,0.6,0.2s0.4-0.1,0.6-0.2l11.2-11.2C1024.1,668.3,1024.1,667.7,1023.8,667.4L1023.8,667.4
			z M1023.8,667.4"/>
	</g>
</g>
</svg>
