<svg id="Layer_1" data-name="Layer 1" xmlns="http://www.w3.org/2000/svg" viewBox="0 0 51.5 50.23"><defs><style>.cls-1{fill:#d8cec2;}</style></defs><title>gh</title><path class="cls-1" d="M25.75,0a25.75,25.75,0,0,0-8.14,50.18c1.29.24,1.76-.56,1.76-1.24s0-2.64,0-4.79c-7.16,1.56-8.67-3-8.67-3-1.18-3-2.86-3.76-2.86-3.76-2.34-1.6.18-1.57.18-1.57a5.4,5.4,0,0,1,3.94,2.66c2.3,3.93,6,2.79,7.5,2.13a5.47,5.47,0,0,1,1.63-3.43c-5.72-.66-11.73-2.87-11.73-12.73A10,10,0,0,1,12,17.5a9.31,9.31,0,0,1,.25-6.82s2.16-.69,7.09,2.64a24.31,24.31,0,0,1,12.89,0c4.91-3.33,7.07-2.64,7.07-2.64a9.27,9.27,0,0,1,.26,6.82,9.92,9.92,0,0,1,2.65,6.91c0,9.89-6,12.07-11.76,12.71a6.1,6.1,0,0,1,1.75,4.76c0,3.44,0,6.22,0,7.07,0,.68.47,1.48,1.77,1.23A25.75,25.75,0,0,0,25.75,0Z"/></svg>