<svg id="Layer_1" data-name="Layer 1" xmlns="http://www.w3.org/2000/svg" viewBox="0 0 57.46 57.46"><defs><style>.cls-1{fill:#807766;}</style></defs><title>ig</title><g id="Layer_1-2" data-name="Layer_1"><g id="_799082544" data-name=" 799082544"><path class="cls-1" d="M84.87,74a11,11,0,0,1-11,11H49A11,11,0,0,1,38,74V49.15a11,11,0,0,1,11-11H73.87a11,11,0,0,1,11,11ZM73.58,32.71H49.3A16.58,16.58,0,0,0,32.71,49.3V73.58A16.58,16.58,0,0,0,49.3,90.17H73.58A16.58,16.58,0,0,0,90.17,73.58V49.3A16.58,16.58,0,0,0,73.58,32.71Z" transform="translate(-32.71 -32.71)"/><path class="cls-1" d="M61.44,71.25a9.67,9.67,0,1,1,9.66-9.66A9.65,9.65,0,0,1,61.44,71.25Zm0-24.58A14.92,14.92,0,1,0,76.35,61.59,14.9,14.9,0,0,0,61.44,46.67Z" transform="translate(-32.71 -32.71)"/><path class="cls-1" d="M76.85,42.63a3.47,3.47,0,1,0,3.47,3.48A3.49,3.49,0,0,0,76.85,42.63Z" transform="translate(-32.71 -32.71)"/></g></g></svg>