<?xml version="1.0" encoding="utf-8"?>
<!-- Generator: Adobe Illustrator 22.0.1, SVG Export Plug-In . SVG Version: 6.00 Build 0)  -->
<svg version="1.1" id="Layer_1" xmlns="http://www.w3.org/2000/svg" xmlns:xlink="http://www.w3.org/1999/xlink" x="0px" y="0px"
	 viewBox="0 0 57.5 57.5" style="enable-background:new 0 0 57.5 57.5;" xml:space="preserve">
<style type="text/css">
	.st0{fill:#D8CEC2;}
</style>
<title>ig</title>
<g id="Layer_1-2">
	<g id="_799082544">
		<path class="st0" d="M52.2,41.3c0,6.1-4.9,11-11,11H16.3c-6.1,0-11-4.9-11-11V16.4c0-6.1,4.9-11,11-11h24.9c6.1,0,11,4.9,11,11
			V41.3z M40.9,0H16.6C7.4,0,0,7.4,0,16.6c0,0,0,0,0,0v24.3C0,50,7.4,57.5,16.6,57.5c0,0,0,0,0,0h24.3c9.2,0,16.6-7.4,16.6-16.6
			c0,0,0,0,0,0V16.6C57.5,7.4,50,0,40.9,0C40.9,0,40.9,0,40.9,0z"/>
		<path class="st0" d="M28.7,38.5c-5.3,0-9.7-4.3-9.7-9.7s4.3-9.7,9.7-9.7s9.7,4.3,9.7,9.7c0,0,0,0,0,0
			C38.4,34.2,34.1,38.5,28.7,38.5C28.7,38.5,28.7,38.5,28.7,38.5z M28.7,14c-8.2,0-14.9,6.7-14.9,14.9s6.7,14.9,14.9,14.9
			s14.9-6.7,14.9-14.9c0,0,0,0,0,0C43.7,20.7,37,14,28.7,14C28.8,14,28.7,14,28.7,14z"/>
		<path class="st0" d="M44.1,9.9c-1.9,0-3.5,1.6-3.5,3.5s1.6,3.5,3.5,3.5c1.9,0,3.5-1.5,3.5-3.5C47.6,11.5,46.1,9.9,44.1,9.9z"/>
	</g>
</g>
</svg>
