<svg id="Layer_1" data-name="Layer 1" xmlns="http://www.w3.org/2000/svg" viewBox="0 0 58.06 58.07"><defs><style>.cls-1{fill:#807766;}</style></defs><title>linkedin</title><g id="Layer_1-2" data-name="Layer_1"><g id="_799061112" data-name=" 799061112"><polygon class="cls-1" points="1.16 58.07 13.14 58.07 13.14 19.36 1.16 19.36 1.16 58.07"/><path class="cls-1" d="M39.51,46.69a7.15,7.15,0,1,0-7.11-7.15A7.12,7.12,0,0,0,39.51,46.69Z" transform="translate(-32.4 -32.4)"/><path class="cls-1" d="M64.71,70.15c0-5.44,2.5-8.68,7.29-8.68,4.42,0,6.54,3.11,6.54,8.68V90.48H90.46V66c0-10.38-5.88-15.4-14.09-15.4A13.5,13.5,0,0,0,64.71,57V51.76H53.21V90.48h11.5Z" transform="translate(-32.4 -32.4)"/></g></g></svg>