<?xml version="1.0" encoding="utf-8"?>
<!-- Generator: Adobe Illustrator 22.0.1, SVG Export Plug-In . SVG Version: 6.00 Build 0)  -->
<svg version="1.1" id="Capa_1" xmlns="http://www.w3.org/2000/svg" xmlns:xlink="http://www.w3.org/1999/xlink" x="0px" y="0px"
	 viewBox="0 0 54 54" style="enable-background:new 0 0 54 54;" xml:space="preserve">
<style type="text/css">
	.st0{fill:#42392F;}
</style>
<g>
	<path class="st0" d="M53.5,1.1c-0.3-0.2-0.7-0.2-1,0L36,9.9L19.5,1.1l0,0c0,0-0.1,0-0.1-0.1h-0.1c-0.1,0-0.1,0-0.2,0c0,0,0,0-0.1,0
		s-0.1,0-0.2,0h-0.1l0,0l-18,6C0.3,7.2,0,7.6,0,8v43c0,0.3,0.2,0.6,0.4,0.8C0.6,51.9,0.8,52,1,52c0.1,0,0.2,0,0.3-0.1L19,46.1
		L35.7,53l0,0c0.1,0,0.2,0.1,0.3,0.1s0.2,0,0.3,0h0.1h0.1l17-9c0.3-0.2,0.5-0.5,0.5-0.9V2C54,1.6,53.8,1.3,53.5,1.1z M2,8.7l16-5.3
		v27c-0.4,0.1-0.9,0.2-1.3,0.3c-0.5,0.1-0.9,0.7-0.7,1.2c0.1,0.4,0.5,0.7,1,0.7c0.1,0,0.2,0,0.3,0c0.2-0.1,0.5-0.1,0.8-0.1v11.8
		L2,49.6V8.7z M20,32.2c0.3,0,0.6-0.1,1-0.1c0.6,0,1-0.5,1-1s-0.5-1-1-1l0,0c-0.3,0-0.6,0-0.9,0V3.7l15,7.9v21.2
		c-0.7,0-1.4-0.1-2.2-0.3c-0.5-0.1-1.1,0.2-1.2,0.8s0.3,1.1,0.8,1.2c0.9,0.2,1.7,0.3,2.6,0.3v15.7l-15-6.2L20,32.2L20,32.2z
		 M52,42.4l-15,7.9V34.7c0.4-0.2,0.6-0.5,0.6-1c0-0.4-0.3-0.7-0.6-0.8V11.6l15-7.9V42.4z"/>
	<path class="st0" d="M11,9c-2.8,0-5,2.2-5,5c0,2.4,1.7,4.4,4,4.9V21c0,0.6,0.4,1,1,1s1-0.4,1-1v-2.1c2.3-0.5,4-2.5,4-4.9
		C16,11.2,13.8,9,11,9z M11,17c-1.7,0-3-1.3-3-3s1.3-3,3-3s3,1.3,3,3S12.7,17,11,17z"/>
	<path class="st0" d="M45.1,27.7c0.1,0,0.2,0.1,0.4,0.1c0.4,0,0.8-0.2,0.9-0.6c0.5-1.2,0.8-2.6,1.1-4c0.1-0.5-0.3-1.1-0.8-1.2
		s-1.1,0.3-1.2,0.8c-0.3,1.3-0.6,2.6-1,3.7C44.3,26.9,44.6,27.5,45.1,27.7z"/>
	<path class="st0" d="M12.8,32.3c-1.2,0.8-2.3,1.7-3.2,2.8c-0.4,0.4-0.3,1.1,0.1,1.4c0.2,0.2,0.4,0.2,0.6,0.2c0.3,0,0.6-0.1,0.8-0.4
		c0.8-1,1.7-1.8,2.8-2.4c0.5-0.3,0.6-0.9,0.3-1.4C13.9,32.2,13.3,32,12.8,32.3z"/>
	<path class="st0" d="M8.6,38.3c-0.5-0.2-1.1,0-1.3,0.5c-1,2.2-1.3,4-1.3,4.1c-0.1,0.5,0.3,1,0.9,1.1H7c0.5,0,0.9-0.4,1-0.9
		c0,0,0.2-1.6,1.1-3.5C9.3,39.1,9.1,38.5,8.6,38.3z"/>
	<path class="st0" d="M40.4,33.7c0.2,0,0.3,0,0.5-0.1c1.3-0.7,2.4-1.6,3.4-2.8c0.3-0.4,0.3-1.1-0.2-1.4c-0.4-0.3-1.1-0.3-1.4,0.2
		c-0.8,1-1.7,1.7-2.7,2.3c-0.5,0.3-0.7,0.9-0.4,1.3C39.7,33.5,40.1,33.7,40.4,33.7z"/>
	<path class="st0" d="M29.2,31.4c-0.4-0.2-0.7-0.3-0.7-0.3c-0.1,0-0.1-0.1-0.2-0.1c-1.1-0.3-2.1-0.5-3.2-0.7
		c-0.5-0.1-1.1,0.3-1.1,0.8c-0.1,0.5,0.3,1.1,0.8,1.1c0.9,0.1,1.9,0.3,2.9,0.6c0.1,0.1,0.4,0.2,0.7,0.3c0.1,0.1,0.3,0.1,0.4,0.1
		c0.4,0,0.8-0.2,0.9-0.6C29.9,32.2,29.7,31.6,29.2,31.4z"/>
	<path class="st0" d="M46.9,19.9C46.9,19.9,47,19.9,46.9,19.9c0.6,0,1-0.4,1.1-0.9c0.1-1,0.1-2,0.1-3c0-0.3,0-0.7,0-1.1
		c0-0.6-0.5-1-1-1c-0.6,0-1,0.5-1,1c0,0.3,0,0.7,0,1c0,1,0,2-0.1,2.9C46,19.4,46.4,19.9,46.9,19.9z"/>
	<path class="st0" d="M8.3,28.7C8.5,28.9,8.7,29,9,29s0.5-0.1,0.7-0.3l1.3-1.3l1.3,1.3c0.2,0.2,0.5,0.3,0.7,0.3s0.5-0.1,0.7-0.3
		c0.4-0.4,0.4-1,0-1.4L12.4,26l1.3-1.3c0.4-0.4,0.4-1,0-1.4s-1-0.4-1.4,0L11,24.6l-1.3-1.3c-0.4-0.4-1-0.4-1.4,0s-0.4,1,0,1.4
		L9.6,26l-1.3,1.3C7.9,27.7,7.9,28.3,8.3,28.7z"/>
</g>
</svg>
