<svg id="Layer_1" data-name="Layer 1" xmlns="http://www.w3.org/2000/svg" viewBox="0 0 217.29 42.02"><defs><style>.cls-1{fill:#30353c;}</style></defs><title>2uniq</title><polygon class="cls-1" points="10.3 0 7.68 9.36 37.85 9.36 36.56 13.94 6.48 13.94 0 37.12 47.92 37.12 50.57 27.63 20.57 27.63 21.76 23.37 51.76 23.37 58.3 0 10.3 0"/><polygon class="cls-1" points="67.48 27.95 75.3 0 63.3 0 52.92 37.12 100.92 37.12 103.48 27.95 67.48 27.95"/><polygon class="cls-1" points="136.95 37.15 136.92 37.11 147.29 0.03 135.29 0.03 128.37 24.78 111.27 0.13 111.28 0.06 95.75 0.05 98.27 3.68 88.92 37.12 100.92 37.12 106.82 16 121.47 37.12 136.91 37.15 136.91 37.15 136.95 37.15"/><polygon class="cls-1" points="153.91 37.15 141.91 37.15 152.29 0.03 164.29 0.03 153.91 37.15"/><path class="cls-1" d="M1102.21,689.25l-3.33-4.84h0l10.39-37.15h-48l-10.39,37.13,33,0,3.33,4.84Zm-7.51-32.73-5.2,18.59h-24l5.2-18.59Z" transform="translate(-892 -647.23)"/></svg>