<?xml version="1.0" encoding="utf-8"?>
<!-- Generator: Adobe Illustrator 22.1.0, SVG Export Plug-In . SVG Version: 6.00 Build 0)  -->
<svg version="1.1" id="Layer_1" xmlns="http://www.w3.org/2000/svg" xmlns:xlink="http://www.w3.org/1999/xlink" x="0px" y="0px"
	 viewBox="0 0 217.3 42" style="enable-background:new 0 0 217.3 42;" xml:space="preserve">
<style type="text/css">
	.st0{fill:#807766;}
</style>
<title>2uniq</title>
<polygon class="st0" points="10.3,0 7.7,9.4 37.8,9.4 36.6,13.9 6.5,13.9 0,37.1 47.9,37.1 50.6,27.6 20.6,27.6 21.8,23.4 
	51.8,23.4 58.3,0 "/>
<polygon class="st0" points="147.3,0 135.3,0 128.4,24.8 111.3,0.1 111.3,0.1 95.8,0.1 98.3,3.7 91.5,27.9 67.5,27.9 75.3,0 63.3,0 
	52.9,37.1 88.9,37.1 100.9,37.1 106.8,16 121.5,37.1 136.9,37.2 137,37.2 136.9,37.1 "/>
<polygon class="st0" points="153.9,37.2 141.9,37.2 152.3,0 164.3,0 "/>
<path class="st0" d="M210.2,42l-3.3-4.8l0,0L217.3,0h-48l-10.4,37.1h33l3.3,4.8L210.2,42z M202.7,9.3l-5.2,18.6h-24l5.2-18.6H202.7z
	"/>
</svg>
