<svg id="Layer_1" data-name="Layer 1" xmlns="http://www.w3.org/2000/svg" viewBox="0 0 1177.6 768"><defs><style>.cls-1{fill:#807766;}</style></defs><title>expand</title><path class="cls-1" d="M101,281.6A102.4,102.4,0,1,0,203.5,384,102.53,102.53,0,0,0,101,281.6Zm0,153.6A51.25,51.25,0,1,1,152.3,384,51.28,51.28,0,0,1,101,435.2Z" transform="translate(1.4)"/><path class="cls-1" d="M408.2,281.6A102.4,102.4,0,1,0,510.6,384,102.47,102.47,0,0,0,408.2,281.6Zm0,153.6A51.25,51.25,0,1,1,459.5,384a51.32,51.32,0,0,1-51.3,51.2Z" transform="translate(1.4)"/><path class="cls-1" d="M817.9,384A102.45,102.45,0,1,0,715.5,486.4,102.53,102.53,0,0,0,817.9,384ZM715.5,435.2A51.25,51.25,0,1,1,766.6,384a51.32,51.32,0,0,1-51.1,51.2Z" transform="translate(1.4)"/><path class="cls-1" d="M1168.7,365.9,810.3,7.5a25.63,25.63,0,0,0-36.2,36.3L1114.5,384,774.1,724.3a25.6,25.6,0,1,0,36.2,36.2l358.4-358.4a25.59,25.59,0,0,0,0-36.2Z" transform="translate(1.4)"/></svg>