<?xml version="1.0" encoding="utf-8"?>
<!-- Generator: Adobe Illustrator 22.0.1, SVG Export Plug-In . SVG Version: 6.00 Build 0)  -->
<svg version="1.1" id="Layer_1" xmlns="http://www.w3.org/2000/svg" xmlns:xlink="http://www.w3.org/1999/xlink" x="0px" y="0px"
	 viewBox="0 0 1178.9 768" style="enable-background:new 0 0 1178.9 768;" xml:space="preserve">
<style type="text/css">
	.st0{fill:#807766;}
</style>
<g>
	<path class="st0" d="M101,281.6C44.6,281.6-1.4,327.5-1.4,384s46,102.4,102.4,102.4c56.5,0,102.5-45.9,102.5-102.4
		S157.5,281.6,101,281.6L101,281.6z M101,435.2c-28.1,0-51.1-23-51.1-51.2c0-28.3,23-51.3,51.1-51.3c28.3,0,51.3,23,51.3,51.3
		C152.2,412.3,129.2,435.2,101,435.2L101,435.2z"/>
	<path class="st0" d="M408.2,281.6c-56.5,0-102.4,45.9-102.4,102.4s45.9,102.4,102.4,102.4S510.6,440.5,510.6,384
		S464.7,281.6,408.2,281.6L408.2,281.6z M408.2,435.2c-28.3,0-51.3-23-51.3-51.2c0-28.3,23-51.3,51.3-51.3s51.3,23,51.3,51.3
		S436.5,435.2,408.2,435.2L408.2,435.2z"/>
	<g>
		<path class="st0" d="M817.9,384c0-56.5-46-102.4-102.4-102.4C659,281.6,613,327.5,613,384s46,102.4,102.5,102.4
			C771.9,486.4,817.9,440.5,817.9,384L817.9,384z M715.5,435.2c-28.3,0-51.3-23-51.3-51.2c0-28.3,23-51.3,51.3-51.3
			c28.2,0,51.1,23,51.1,51.3S743.7,435.2,715.5,435.2L715.5,435.2z"/>
		<path class="st0" d="M1168.7,365.9L810.3,7.5c-10-10-26.2-10-36.2,0s-10,26.2,0,36.3L1114.5,384L774.1,724.3
			c-10,10.1-10,26.2,0,36.2c5,5,11.6,7.5,18.1,7.5s13.1-2.5,18.1-7.5l358.4-358.4C1178.7,392.1,1178.7,375.9,1168.7,365.9
			L1168.7,365.9z"/>
	</g>
</g>
</svg>
