<?xml version="1.0" encoding="utf-8"?>
<!-- Generator: Adobe Illustrator 22.0.1, SVG Export Plug-In . SVG Version: 6.00 Build 0)  -->
<svg version="1.1" id="Layer_1" xmlns="http://www.w3.org/2000/svg" xmlns:xlink="http://www.w3.org/1999/xlink" x="0px" y="0px"
	 viewBox="0 0 153 74.8" style="enable-background:new 0 0 153 74.8;" xml:space="preserve">
<style type="text/css">
	.st0{fill:#807766;}
</style>
<g>
	<polygon class="st0" points="4.9,46.3 4.9,26.7 10.2,26.7 10.2,46.3 15.5,46.3 15.5,16.2 20.8,16.2 20.8,46.3 26,46.3 26,5.6 
		126.3,5.6 126.3,46.3 131.6,46.3 131.6,16.2 136.9,16.2 136.9,46.3 142.1,46.3 142.1,26.7 147.4,26.7 147.4,46.3 152.7,46.3 
		152.7,21.4 142.1,21.4 142.1,10.9 131.6,10.9 131.6,0.3 20.8,0.3 20.8,10.9 10.2,10.9 10.2,21.4 -0.3,21.4 -0.3,46.3 	"/>
	<polygon class="st0" points="147.4,23.3 147.4,48.4 142.1,48.4 142.1,23.3 136.9,23.3 136.9,59 131.6,59 131.6,23.3 126.3,23.3 
		126.3,69.5 26,69.5 26,23.3 20.8,23.3 20.8,59 15.5,59 15.5,23.3 10.2,23.3 10.2,48.4 4.9,48.4 4.9,23.3 -0.3,23.3 -0.3,53.7 
		10.2,53.7 10.2,64.2 20.8,64.2 20.8,74.8 131.6,74.8 131.6,64.2 142.1,64.2 142.1,53.7 152.7,53.7 152.7,23.3 	"/>
</g>
</svg>
