<?xml version="1.0" encoding="utf-8"?>
<!-- Generator: Adobe Illustrator 22.0.1, SVG Export Plug-In . SVG Version: 6.00 Build 0)  -->
<svg version="1.1" id="Layer_1" xmlns="http://www.w3.org/2000/svg" xmlns:xlink="http://www.w3.org/1999/xlink" x="0px" y="0px"
	 viewBox="0 0 51.5 51.1" style="enable-background:new 0 0 51.5 51.1;" xml:space="preserve">
<style type="text/css">
	.st0{fill:#D8CEC2;}
</style>
<title>linkedin</title>
<g id="Layer_1-2">
	<g id="_799061112">
		<polygon class="st0" points="1.3,51.1 11.8,51.1 11.8,17.1 1.3,17.1 		"/>
		<path class="st0" d="M6.4,12.8c3.5,0,6.3-2.8,6.3-6.2c0-3.5-2.8-6.3-6.2-6.3S0.3,2.9,0.3,6.4l0,0C0.3,9.9,3,12.8,6.4,12.8
			L6.4,12.8z"/>
		<path class="st0" d="M28.5,33.3c0-4.8,2.2-7.6,6.4-7.6c3.9,0,5.7,2.7,5.7,7.6v17.8h10.5V29.6c0-9.1-5.2-13.5-12.4-13.5
			c-4.2-0.1-8,2.1-10.2,5.6v-4.6H18.5v34h10.1C28.6,51.1,28.6,33.3,28.5,33.3z"/>
	</g>
</g>
</svg>
