<?xml version="1.0" encoding="utf-8"?>
<!-- Generator: Adobe Illustrator 22.0.1, SVG Export Plug-In . SVG Version: 6.00 Build 0)  -->
<svg version="1.1" id="Capa_1" xmlns="http://www.w3.org/2000/svg" xmlns:xlink="http://www.w3.org/1999/xlink" x="0px" y="0px"
	 viewBox="0 0 60 60" style="enable-background:new 0 0 60 60;" xml:space="preserve">
<style type="text/css">
	.st0{fill:#807766;}
</style>
<g>
	<path class="st0" d="M59,16h-2c-0.2-3.1-1.5-5.9-3.4-8.2l1.1-1.1c0.4-0.4,0.4-1,0-1.4s-1-0.4-1.4,0l-1.1,1.1
		c-2.2-1.9-5-3.2-8.2-3.4V1c0-0.6-0.4-1-1-1s-1,0.4-1,1v2.1c-3.1,0.2-5.9,1.5-8.2,3.4l-1.1-1.1c-0.4-0.4-1-0.4-1.4,0s-0.4,1,0,1.4
		l1.1,1.1c-1.9,2.2-3.2,5-3.4,8.2H27c-0.6,0-1,0.4-1,1s0.4,1,1,1h2.1c0.2,3.1,1.5,5.9,3.4,8.2l-1.1,1.1c-0.1,0.1-0.2,0.2-0.2,0.4
		c-1.2-1.1-2.5-2-3.9-2.7l0.7-1.6c0.2-0.5,0-1.1-0.5-1.3c-0.5-0.2-1.1,0-1.3,0.5l-0.7,1.6c-2-0.8-4.1-1.2-6.4-1.2
		c-1.9,0-3.8,0.3-5.6,0.9l-0.5-1.3c-0.2-0.5-0.8-0.8-1.3-0.6c-0.5,0.2-0.8,0.8-0.6,1.3l0.5,1.3c-3.7,1.7-6.7,4.6-8.6,8.2l-1.6-0.7
		c-0.5-0.2-1.1,0-1.3,0.5c-0.2,0.5,0,1.1,0.5,1.3l1.6,0.7C1.4,36.6,1,38.8,1,41c0,1.9,0.3,3.8,0.9,5.6l-1.3,0.5
		c-0.5,0.2-0.8,0.8-0.6,1.3C0.2,48.8,0.6,49,1,49c0.1,0,0.2,0,0.4-0.1l1.3-0.5c1.7,3.7,4.6,6.7,8.2,8.6l-0.7,1.6
		c-0.2,0.5,0,1.1,0.5,1.3C10.7,60,10.9,60,11,60c0.4,0,0.7-0.2,0.9-0.6l0.7-1.6c2,0.8,4.1,1.2,6.4,1.2c1.9,0,3.8-0.3,5.6-0.9
		l0.5,1.3c0.2,0.4,0.5,0.6,0.9,0.6c0.1,0,0.2,0,0.4-0.1c0.5-0.2,0.8-0.8,0.6-1.3l-0.5-1.3c3.7-1.7,6.7-4.6,8.6-8.2l1.6,0.7
		C36.7,50,36.9,50,37,50c0.4,0,0.7-0.2,0.9-0.6c0.2-0.5,0-1.1-0.5-1.3l-1.6-0.7c0.8-2,1.2-4.1,1.2-6.4c0-1.9-0.3-3.8-0.9-5.6
		l1.3-0.5c0.5-0.2,0.8-0.8,0.6-1.3c-0.2-0.5-0.8-0.8-1.3-0.6l-1.3,0.5c-0.8-1.7-1.8-3.3-3-4.6c0.1,0,0.3-0.1,0.4-0.2l1.1-1.1
		c2.2,1.9,5,3.2,8.2,3.4v2c0,0.6,0.4,1,1,1s1-0.4,1-1v-2.1c3.1-0.2,5.9-1.5,8.2-3.4l1.2,1.2c0.2,0.2,0.5,0.3,0.7,0.3
		s0.5-0.1,0.7-0.3c0.4-0.4,0.4-1,0-1.4l-1.2-1.2c1.9-2.2,3.2-5,3.4-8.2H59c0.6,0,1-0.4,1-1S59.6,16,59,16z M19,25c2,0,3.8,0.4,5.6,1
		l-4.9,11C19.4,37,19.2,37,19,37c-2.2,0-4,1.8-4,4c0,0.2,0,0.3,0,0.5L3.8,45.9C3.3,44.3,3,42.7,3,41C3,32.2,10.2,25,19,25z
		 M17.1,41.7C17.1,41.7,17.1,41.7,17.1,41.7C17.1,41.7,17.1,41.7,17.1,41.7C17.1,41.5,17,41.3,17,41c0-1.1,0.9-2,2-2
		c0.3,0,0.5,0.1,0.8,0.2c0,0,0,0,0,0c0,0,0,0,0,0c0.7,0.3,1.2,1,1.2,1.8c0,1.1-0.9,2-2,2C18.2,43,17.4,42.5,17.1,41.7z M4.5,47.7
		l11.3-4.4c0.7,1,1.9,1.7,3.2,1.7c0.2,0,0.3,0,0.5,0l4.4,11.3C22.3,56.7,20.7,57,19,57C12.6,57,7,53.2,4.5,47.7z M25.7,55.5
		l-4.4-11.3c1-0.7,1.7-1.9,1.7-3.2c0-1.3-0.6-2.4-1.5-3.1l4.9-11.1c5.1,2.7,8.6,8,8.6,14.2C35,47.4,31.2,53,25.7,55.5z M43,29
		c-6.6,0-12-5.4-12-12S36.4,5,43,5s12,5.4,12,12S49.6,29,43,29z"/>
	<path class="st0" d="M43,13c-2.2,0-4,1.8-4,4s1.8,4,4,4s4-1.8,4-4S45.2,13,43,13z M43,19c-1.1,0-2-0.9-2-2s0.9-2,2-2s2,0.9,2,2
		S44.1,19,43,19z"/>
</g>
</svg>
