<svg id="Layer_1" data-name="Layer 1" xmlns="http://www.w3.org/2000/svg" viewBox="0 0 341.74 277.72"><defs><style>.cls-1{fill:#d8cec2;}</style></defs><title>twitter</title><path class="cls-1" d="M107.47,277.73A198.47,198.47,0,0,1,0,246.23a144.4,144.4,0,0,0,16.73,1,140.66,140.66,0,0,0,87.07-30A70.16,70.16,0,0,1,38.31,168.5,70.19,70.19,0,0,0,70,167.3,70.15,70.15,0,0,1,13.73,98.55v-.88a69.85,69.85,0,0,0,31.76,8.77,70.19,70.19,0,0,1-21.7-93.6A199.05,199.05,0,0,0,168.3,86.09,70.16,70.16,0,0,1,287.78,22.14a140.4,140.4,0,0,0,44.52-17,70.35,70.35,0,0,1-30.83,38.79,140.31,140.31,0,0,0,40.27-11,142.38,142.38,0,0,1-35,36.29q.21,4.52.21,9.07c0,92.65-70.53,199.49-199.49,199.49" transform="translate(0 0)"/></svg>